<svg width="78" height="62" viewBox="0 0 78 62" fill="none" xmlns="http://www.w3.org/2000/svg">
<path fill-rule="evenodd" clip-rule="evenodd" d="M77.0303 4.71763C77.0303 2.11215 74.9501 0 72.3839 0H4.64637C2.08025 0 0 2.11215 0 4.71762V57.2824C0 59.8878 2.08025 62 4.64637 62H72.4217C74.967 62 77.0303 59.905 77.0303 57.3208V4.71763ZM73.5436 10.7233H3.48667V6.68266C3.48667 4.94709 4.87238 3.54014 6.58173 3.54014H70.4486C72.1579 3.54014 73.5436 4.94709 73.5436 6.68266V10.7233ZM73.5436 14.2327H3.48667V55.3173C3.48667 57.0529 4.87238 58.4599 6.58173 58.4599H70.4712C72.1681 58.4599 73.5436 57.0632 73.5436 55.3404V14.2327Z" fill="#00458C"/>
<path fill-rule="evenodd" clip-rule="evenodd" d="M8.44905 19.4969C7.49458 19.4969 6.72083 20.2825 6.72083 21.2516V31C6.72083 31.9691 7.49458 32.7547 8.44905 32.7547H36.2925C37.247 32.7547 38.0207 31.9691 38.0207 31V21.2516C38.0207 20.2825 37.247 19.4969 36.2925 19.4969H8.44905ZM35.5244 22.0314H9.21714V30.2201H35.5244V22.0314Z" fill="#00458C"/>
<path d="M9.40917 8.38365C10.1047 8.38365 10.6687 7.8111 10.6687 7.10484C10.6687 6.39857 10.1047 5.82603 9.40917 5.82603C8.71362 5.82603 8.14967 6.39857 8.14967 7.10484C8.14967 7.8111 8.71362 8.38365 9.40917 8.38365Z" fill="#00458C"/>
<path d="M14.7012 8.38365C15.3967 8.38365 15.9607 7.8111 15.9607 7.10484C15.9607 6.39857 15.3967 5.82603 14.7012 5.82603C14.0056 5.82603 13.4417 6.39857 13.4417 7.10484C13.4417 7.8111 14.0056 8.38365 14.7012 8.38365Z" fill="#00458C"/>
<path d="M19.5018 8.40667C20.1973 8.40667 20.7613 7.83413 20.7613 7.12787C20.7613 6.4216 20.1973 5.84906 19.5018 5.84906C18.8062 5.84906 18.2423 6.4216 18.2423 7.12787C18.2423 7.83413 18.8062 8.40667 19.5018 8.40667Z" fill="#00458C"/>
<path fill-rule="evenodd" clip-rule="evenodd" d="M8.44905 35.0943C7.49458 35.0943 6.72083 35.88 6.72083 36.8491V40.7484C6.72083 41.7175 7.49458 42.5031 8.44905 42.5031H16.13C17.0845 42.5031 17.8582 41.7175 17.8582 40.7484V36.8491C17.8582 35.88 17.0845 35.0943 16.13 35.0943H8.44905ZM15.3619 37.6289H9.21714V39.9686H15.3619V37.6289Z" fill="#00458C"/>
<path fill-rule="evenodd" clip-rule="evenodd" d="M21.8907 35.0943C20.9363 35.0943 20.1625 35.88 20.1625 36.8491V40.7484C20.1625 41.7175 20.9363 42.5031 21.8907 42.5031H36.2925C37.247 42.5031 38.0207 41.7175 38.0207 40.7484V36.8491C38.0207 35.88 37.247 35.0943 36.2925 35.0943H21.8907ZM35.5244 37.6289H22.6588V39.9686H35.5244V37.6289Z" fill="#00458C"/>
<path d="M8.04129 45.8176C7.30303 45.8176 6.7208 46.3939 6.7208 47.0849C6.7208 47.7759 7.30303 48.3522 8.04129 48.3522H36.196C36.9343 48.3522 37.5165 47.7759 37.5165 47.0849C37.5165 46.3939 36.9343 45.8176 36.196 45.8176H8.04129Z" fill="#00458C"/>
<path fill-rule="evenodd" clip-rule="evenodd" d="M43.9735 46.7924C43.019 46.7924 42.2453 47.5781 42.2453 48.5472V52.4465C42.2453 53.4156 43.019 54.2013 43.9735 54.2013H69.8967C70.8512 54.2013 71.6249 53.4156 71.6249 52.4465V48.5472C71.6249 47.5781 70.8512 46.7924 69.8967 46.7924H43.9735ZM69.1286 49.327H44.7416V51.6667H69.1286V49.327Z" fill="#00458C"/>
<path d="M55.8303 40.1939L58.7367 43.0488L60.5844 40.8078L57.7234 37.9895L60.1475 35.1667L49.1406 32.2611L53.4232 42.9971L55.8303 40.1939Z" fill="#00458C"/>
<path d="M43.9886 26.3745C43.293 26.3745 42.7291 26.947 42.7291 27.6533C42.7291 28.3596 43.293 28.9321 43.9886 28.9321H48.827C49.5226 28.9321 50.0865 28.3596 50.0865 27.6533C50.0865 26.947 49.5226 26.3745 48.827 26.3745H43.9886Z" fill="#00458C"/>
<path d="M53.6654 26.3745C52.9698 26.3745 52.4059 26.947 52.4059 27.6533C52.4059 28.3596 52.9698 28.9321 53.6654 28.9321H70.0479C70.7435 28.9321 71.3074 28.3596 71.3074 27.6533C71.3074 26.947 70.7435 26.3745 70.0479 26.3745H53.6654Z" fill="#00458C"/>
<path d="M43.5047 19.4969C42.8091 19.4969 42.2453 20.0694 42.2453 20.7757C42.2453 21.4819 42.8091 22.0545 43.5047 22.0545H69.564C70.2597 22.0545 70.8236 21.4819 70.8236 20.7757C70.8236 20.0694 70.2597 19.4969 69.564 19.4969H43.5047Z" fill="#00458C"/>
<path fill-rule="evenodd" clip-rule="evenodd" d="M7.1543 52.3868C7.1543 51.6512 7.77409 51.0377 8.55997 51.0377H14.949C15.7349 51.0377 16.3547 51.6512 16.3547 52.3868C16.3547 53.1224 15.7349 53.7358 14.949 53.7358H8.55997C7.77409 53.7358 7.1543 53.1224 7.1543 52.3868ZM19.4471 52.3868C19.4471 51.6512 20.0669 51.0377 20.8528 51.0377H39.0679C39.8538 51.0377 40.4736 51.6512 40.4736 52.3868C40.4736 53.1224 39.8538 53.7358 39.0679 53.7358H20.8528C20.0669 53.7358 19.4471 53.1224 19.4471 52.3868Z" fill="#00458C"/>
</svg>
