<svg width="64" height="62" viewBox="0 0 64 62" fill="none" xmlns="http://www.w3.org/2000/svg">
<path d="M54.9966 15.8056V17.4557H48.8311V15.8056H50.911V10.3913C50.911 10.2538 50.9135 10.1163 50.9185 9.97882C50.9234 9.8364 50.9308 9.69399 50.9407 9.55157L49.7077 10.5681C49.5987 10.6516 49.4898 10.7032 49.3808 10.7228C49.2768 10.7376 49.1778 10.7376 49.0837 10.7228C48.9896 10.7032 48.9054 10.6713 48.8311 10.6271C48.7568 10.5779 48.7024 10.5288 48.6677 10.4797L47.9397 9.5221L51.3122 6.71552H53.2138V15.8056H54.9966Z" fill="#00458C"/>
<path fill-rule="evenodd" clip-rule="evenodd" d="M55.1935 15.6103V17.6509H48.6342V15.6103H50.7141V10.3913C50.7141 10.2564 50.7164 10.1215 50.7211 9.98653L49.8281 10.7227C49.7002 10.8208 49.5626 10.8885 49.416 10.9149L49.4087 10.9163C49.2872 10.9335 49.1683 10.9338 49.053 10.9157L49.043 10.9141C48.9299 10.8905 48.8248 10.851 48.7298 10.7945L48.7218 10.7897C48.6371 10.7337 48.5622 10.6696 48.5086 10.5948L47.67 9.49165L51.2405 6.52023H53.4107V15.6103H55.1935ZM48.6677 10.4797C48.7024 10.5288 48.7568 10.5779 48.8311 10.6271C48.9054 10.6713 48.9896 10.7032 49.0837 10.7228C49.1778 10.7376 49.2768 10.7376 49.3808 10.7228C49.4898 10.7032 49.5987 10.6516 49.7077 10.5681L50.9407 9.55157C50.9346 9.64052 50.9293 9.72946 50.9251 9.81841C50.9225 9.87187 50.9203 9.92535 50.9185 9.97882C50.9135 10.1163 50.911 10.2538 50.911 10.3913V15.8056H48.8311V17.4557H54.9966V15.8056H53.2138V6.71552H51.3122L47.9397 9.5221L48.6677 10.4797Z" fill="#00458C"/>
<path fill-rule="evenodd" clip-rule="evenodd" d="M13.7865 10.7402C13.7865 9.9313 14.4478 9.27559 15.2634 9.27559H32.9858C33.8015 9.27559 34.4627 9.9313 34.4627 10.7402C34.4627 11.549 33.8015 12.2047 32.9858 12.2047H15.2634C14.4478 12.2047 13.7865 11.549 13.7865 10.7402Z" fill="#00458C"/>
<path fill-rule="evenodd" clip-rule="evenodd" d="M14.2788 17.5748C14.2788 16.7659 14.94 16.1102 15.7557 16.1102H20.6786C21.4942 16.1102 22.1555 16.7659 22.1555 17.5748C22.1555 18.3837 21.4942 19.0394 20.6786 19.0394H15.7557C14.94 19.0394 14.2788 18.3837 14.2788 17.5748Z" fill="#00458C"/>
<path fill-rule="evenodd" clip-rule="evenodd" d="M24.1246 17.5748C24.1246 16.7659 24.7858 16.1102 25.6015 16.1102H33.4781C34.2937 16.1102 34.955 16.7659 34.955 17.5748C34.955 18.3837 34.2937 19.0394 33.4781 19.0394H25.6015C24.7858 19.0394 24.1246 18.3837 24.1246 17.5748Z" fill="#00458C"/>
<path fill-rule="evenodd" clip-rule="evenodd" d="M14.2788 23.4331C14.2788 22.6242 14.94 21.9685 15.7557 21.9685H26.5861C27.4017 21.9685 28.0629 22.6242 28.0629 23.4331C28.0629 24.2419 27.4017 24.8976 26.5861 24.8976H15.7557C14.94 24.8976 14.2788 24.2419 14.2788 23.4331Z" fill="#00458C"/>
<path fill-rule="evenodd" clip-rule="evenodd" d="M30.0321 23.4331C30.0321 22.6242 30.6933 21.9685 31.5089 21.9685H37.4164C38.2321 21.9685 38.8933 22.6242 38.8933 23.4331C38.8933 24.2419 38.2321 24.8976 37.4164 24.8976H31.5089C30.6933 24.8976 30.0321 24.2419 30.0321 23.4331Z" fill="#00458C"/>
<path fill-rule="evenodd" clip-rule="evenodd" d="M14.2788 29.2913C14.2788 28.4825 14.94 27.8268 15.7557 27.8268H41.3547C42.1704 27.8268 42.8316 28.4825 42.8316 29.2913C42.8316 30.1002 42.1704 30.7559 41.3547 30.7559H15.7557C14.94 30.7559 14.2788 30.1002 14.2788 29.2913Z" fill="#00458C"/>
<path fill-rule="evenodd" clip-rule="evenodd" d="M10.3405 3.41732C9.52487 3.41732 8.86366 4.07303 8.86366 4.88189V29.995L25.2123 37.4248L27.58 35.3156C29.2536 33.8248 31.7881 33.8143 33.4741 35.2912L35.841 37.3645C36.316 37.1656 36.9764 36.8824 37.784 36.5322C39.4647 35.8034 41.7623 34.7932 44.3043 33.6697C48.485 31.8219 53.3187 29.6714 57.1403 27.97C56.552 27.4789 56.4393 26.6128 56.8993 25.9874C57.38 25.3339 58.3038 25.1905 58.9628 25.6671L61.5386 27.5302V62H0L0.0578409 27.5415L5.90993 23.189V4.88189C5.90993 2.45532 7.89357 0.488189 10.3405 0.488189H38.401C39.2166 0.488189 39.8778 1.1439 39.8778 1.95276C39.8778 2.76161 39.2166 3.41732 38.401 3.41732H10.3405ZM5.90993 26.8504L4.40586 27.969L5.90993 28.6526V26.8504ZM3.00652 30.5552L22.8172 39.5584L2.96172 57.2462L3.00652 30.5552ZM5.33338 59.0709H56.159L31.5186 37.4865C30.9566 36.9942 30.1118 36.9977 29.5539 37.4946L5.33338 59.0709ZM58.5848 57.2876L38.2893 39.5092C38.5028 39.4172 38.7292 39.3193 38.9674 39.216C40.658 38.4829 42.9633 37.4692 45.5067 36.3451C49.7771 34.4577 54.7275 32.255 58.5848 30.5377V57.2876Z" fill="#00458C"/>
<path fill-rule="evenodd" clip-rule="evenodd" d="M51.2005 22.4567C56.6382 22.4567 61.0463 18.0853 61.0463 12.6929C61.0463 7.30053 56.6382 2.92913 51.2005 2.92913C45.7628 2.92913 41.3547 7.30053 41.3547 12.6929C41.3547 18.0853 45.7628 22.4567 51.2005 22.4567ZM51.2005 25.3858C58.2695 25.3858 64 19.703 64 12.6929C64 5.68281 58.2695 0 51.2005 0C44.1315 0 38.401 5.68281 38.401 12.6929C38.401 19.703 44.1315 25.3858 51.2005 25.3858Z" fill="#00458C"/>
</svg>
