<svg width="79" height="77" viewBox="0 0 79 77" fill="none" xmlns="http://www.w3.org/2000/svg">
<path d="M26.9214 44.4577C27.2988 44.4577 27.597 44.5672 27.8159 44.7863C28.0348 44.9975 28.1442 45.2792 28.1442 45.6312V47.7436H16.5494V46.5701C16.5494 46.3432 16.5947 46.1006 16.6853 45.8425C16.7759 45.5843 16.9344 45.3496 17.1609 45.1383L21.9166 40.1743C22.3242 39.7518 22.679 39.3489 22.9809 38.9655C23.2829 38.5822 23.532 38.2066 23.7282 37.8389C23.9245 37.4634 24.0717 37.0918 24.1698 36.724C24.268 36.3485 24.317 35.9534 24.317 35.5388C24.317 34.8581 24.1585 34.3378 23.8415 33.978C23.532 33.6102 23.0564 33.4264 22.4148 33.4264C21.8939 33.4264 21.4523 33.5711 21.09 33.8606C20.7352 34.1422 20.4898 34.4943 20.354 34.9168C20.1954 35.3471 19.9879 35.6326 19.7312 35.7735C19.4745 35.9143 19.1084 35.9456 18.6329 35.8674L16.7759 35.527C16.8967 34.6743 17.1269 33.931 17.4666 33.2973C17.8138 32.6636 18.2403 32.1355 18.7461 31.713C19.2594 31.2905 19.8444 30.9776 20.5012 30.7742C21.1579 30.5629 21.8637 30.4573 22.6186 30.4573C23.4338 30.4573 24.1661 30.5825 24.8153 30.8329C25.472 31.0754 26.0306 31.4157 26.4911 31.8538C26.9516 32.292 27.3026 32.8161 27.5441 33.4264C27.7932 34.0288 27.9178 34.6938 27.9178 35.4214C27.9178 36.0473 27.831 36.6262 27.6574 37.1582C27.4913 37.6903 27.2611 38.1988 26.9667 38.6839C26.6723 39.1611 26.3288 39.6266 25.9362 40.0804C25.5513 40.5263 25.1399 40.9801 24.702 41.4417L21.475 44.8684C21.8901 44.7354 22.3015 44.6337 22.7092 44.5633C23.1168 44.4929 23.4942 44.4577 23.8415 44.4577H26.9214Z" fill="#00458C"/>
<path d="M36.8761 41.1014V36.6419C36.8761 36.3681 36.8837 36.0747 36.8988 35.7617C36.9214 35.441 36.9516 35.1085 36.9893 34.7642L32.63 41.1014H36.8761ZM41.6318 41.1014V43.1433C41.6318 43.3233 41.5714 43.4797 41.4506 43.6127C41.3374 43.7457 41.1713 43.8122 40.9524 43.8122H39.9333V47.7436H36.8761V43.8122H30.2408C30.0219 43.8122 29.8218 43.7418 29.6407 43.601C29.467 43.4602 29.3576 43.2841 29.3123 43.0729L28.95 41.2774L36.5817 30.6451H39.9333V41.1014H41.6318Z" fill="#00458C"/>
<path d="M46.0496 47.6028C45.9665 47.814 45.8571 48.0018 45.7212 48.1661C45.5929 48.3304 45.4457 48.4673 45.2796 48.5768C45.1211 48.6863 44.9475 48.7685 44.7588 48.8233C44.5776 48.878 44.3964 48.9054 44.2152 48.9054H42.7206L49.1521 31.4079C49.3031 31.0089 49.5333 30.7038 49.8428 30.4925C50.1523 30.2813 50.5109 30.1757 50.9185 30.1757H52.4132L46.0496 47.6028Z" fill="#00458C"/>
<path d="M65.469 30.6451V32.1707C65.469 32.6245 65.42 32.9922 65.3218 33.2738C65.2237 33.5477 65.1293 33.7784 65.0387 33.9662L59.3093 46.5466C59.1507 46.8752 58.9243 47.1568 58.6299 47.3915C58.343 47.6262 57.958 47.7436 57.4749 47.7436H54.9159L60.8039 35.5036C60.9775 35.175 61.1511 34.8777 61.3248 34.6117C61.5059 34.3378 61.706 34.0797 61.9249 33.8371H54.6668C54.5611 33.8371 54.4592 33.8176 54.3611 33.7785C54.2705 33.7315 54.1875 33.6728 54.112 33.6024C54.044 33.5242 53.9874 33.4381 53.9421 33.3442C53.8968 33.2425 53.8742 33.1408 53.8742 33.0391V30.6451H65.469Z" fill="#00458C"/>
<path fill-rule="evenodd" clip-rule="evenodd" d="M13.7722 23.3411L1.97764 21.3203L5.83529 34.1457L13.7722 23.3411Z" fill="#00458C"/>
<path fill-rule="evenodd" clip-rule="evenodd" d="M67.767 54.3428L79 58.4923L77.5218 45.1735L67.767 54.3428Z" fill="#00458C"/>
<path fill-rule="evenodd" clip-rule="evenodd" d="M8.93872 23.7573C14.4978 11.7446 26.6388 3.41274 40.7237 3.41274C58.2998 3.41274 72.8436 16.3868 75.3558 33.2836L78.7047 32.7778C75.9456 14.2212 59.9871 0 40.7237 0C25.2821 0 11.9677 9.13788 5.86983 22.3148L8.93872 23.7573ZM40.7237 73.5873C36.7137 73.5873 32.8616 72.9119 29.2741 71.6687L28.6064 75.0441C32.4158 76.3131 36.4899 77 40.7237 77C57.0225 77 70.9517 66.8198 76.5263 52.4525L73.3725 51.2096C68.2921 64.3037 55.5909 73.5873 40.7237 73.5873Z" fill="#00458C"/>
<path fill-rule="evenodd" clip-rule="evenodd" d="M2.6762 40.5585C3.38208 40.2498 4.12367 40.2622 4.6731 40.3604L9.43522 41.2114C10.9766 41.4869 12.0166 42.9792 11.7412 44.5201C11.4652 46.0637 11.4386 47.5889 11.6511 49.0448L11.6529 49.0573L11.6546 49.0698C11.7859 50.0927 11.369 51.145 10.4782 51.7898L10.4197 51.8321L9.17829 52.5566C10.3245 55.7966 12.5067 58.8537 15.0885 61.0083L16.018 60.05L16.1342 59.9691C17.0207 59.3517 18.175 59.2815 19.1227 59.8016C20.429 60.4978 21.8689 61.0117 23.4016 61.2856C24.9429 61.561 25.983 63.0533 25.7075 64.5942L24.8589 69.3412C24.753 69.9336 24.4788 70.6261 23.9377 71.1635C23.3447 71.7524 22.4901 72.0842 21.5026 71.9078C7.93262 69.4827 -1.33956 56.1972 1.08831 42.6163C1.26912 41.6049 1.88501 40.9045 2.6762 40.5585ZM3.96078 43.234C1.88845 55.1484 10.0308 66.8167 21.9158 68.9996C21.938 68.95 21.957 68.8893 21.9686 68.8247L22.8025 64.1601C21.0123 63.8312 19.3313 63.231 17.8043 62.425L15.4016 64.9021L14.3732 64.165C10.5498 61.4248 7.32478 56.9876 6.01136 52.2737L5.70749 51.1831L8.73803 49.4147C8.49041 47.6772 8.52392 45.8813 8.83628 44.0862L4.15655 43.2498C4.08574 43.2372 4.01825 43.2324 3.96078 43.234Z" fill="#00458C"/>
</svg>
