<svg width="91" height="63" viewBox="0 0 91 63" fill="none" xmlns="http://www.w3.org/2000/svg">
<path fill-rule="evenodd" clip-rule="evenodd" d="M21.4795 21.844C21.4431 21.9632 21.3914 22.0762 21.3265 22.1803C21.2244 22.3438 21.0896 22.4855 20.9295 22.5948C20.8349 22.6595 20.7336 22.7114 20.6281 22.75C20.4414 22.8182 20.2415 22.8447 20.0424 22.8257C19.9045 22.8125 19.7707 22.7779 19.6454 22.7239C19.4877 22.6559 19.3433 22.5571 19.2209 22.4317C19.111 22.3191 19.0222 22.1885 18.9574 22.0463C18.8928 21.9043 18.852 21.7507 18.838 21.5917C18.822 21.4098 18.8417 21.2274 18.8944 21.0547C18.9339 20.9253 18.992 20.8014 19.0675 20.6871C19.1559 20.5534 19.2655 20.437 19.3907 20.3424C19.5153 20.2483 19.6553 20.1756 19.8052 20.1285C19.9686 20.0772 20.1383 20.0581 20.3054 20.0707C20.4459 20.0813 20.5845 20.1144 20.7162 20.1696C20.8986 20.246 21.0605 20.3621 21.1916 20.5083C21.253 20.5767 21.3076 20.6517 21.3545 20.7324C21.3657 20.7518 21.3766 20.7715 21.3869 20.7916L29.8046 16.1775C29.7216 16.0167 29.6348 15.8585 29.5444 15.7028C29.1043 14.9449 28.5782 14.2489 27.9798 13.6275C26.9778 12.587 25.7729 11.7555 24.4287 11.192C22.1171 10.223 19.5367 10.1068 17.1272 10.8632C14.7177 11.6196 12.6282 13.2018 11.2147 15.3402C9.80119 17.4786 9.15118 20.041 9.3754 22.5906C9.59962 25.1403 10.6842 27.5195 12.4443 29.3229C14.2045 31.1263 16.5313 32.2423 19.0282 32.4808C21.5252 32.7192 24.0379 32.0653 26.1382 30.6306C27.3707 29.7886 28.4164 28.7083 29.2217 27.4629C29.7887 26.586 30.2365 25.6273 30.5464 24.6123L21.4795 21.844ZM22.3602 25.3679C21.5744 25.8114 20.6641 26.0124 19.7464 25.9248C18.6981 25.8247 17.7243 25.3555 16.993 24.6062C16.263 23.8583 15.8266 22.886 15.7368 21.8645C15.647 20.8441 15.9066 19.8234 16.4704 18.9704C17.0347 18.1167 17.8786 17.4703 18.8727 17.1582C19.7402 16.8859 20.6703 16.8852 21.5379 17.1586L25.1068 15.2023C24.54 14.7334 23.9069 14.349 23.2252 14.0632C21.5971 13.3807 19.7735 13.2954 18.0596 13.8335C16.3436 14.3722 14.8373 15.5054 13.8118 17.0569C12.7857 18.6092 12.3142 20.4705 12.4766 22.3179C12.639 24.1641 13.4225 25.8679 14.6723 27.1485C15.9207 28.4275 17.564 29.2136 19.3242 29.3817C21.0854 29.5498 22.8738 29.0903 24.3821 28.0599C25.0194 27.6246 25.5892 27.099 26.076 26.5025L22.3602 25.3679Z" fill="#00458C"/>
<path fill-rule="evenodd" clip-rule="evenodd" d="M27.2333 22.0922C27.3584 21.6825 27.4035 21.2529 27.3661 20.8277C27.3287 20.4026 27.2096 19.9903 27.0154 19.6143L33.6079 16.0007C34.0929 16.9399 34.4376 17.9471 34.6323 18.9894C34.6974 19.3379 34.7457 19.6903 34.777 20.0454C34.8094 20.4141 34.8232 20.7838 34.8185 21.153C34.8053 22.2032 34.6427 23.25 34.3343 24.2602L27.2333 22.0922Z" fill="#00458C"/>
<path fill-rule="evenodd" clip-rule="evenodd" d="M76.6414 36.1633C76.5338 36.1633 76.4465 36.2506 76.4465 36.3582V57.9736C76.4465 58.0813 76.5338 58.1686 76.6414 58.1686H87.4492C87.5568 58.1686 87.6441 58.0813 87.6441 57.9736V36.3582C87.6441 36.2506 87.5568 36.1633 87.4492 36.1633H76.6414ZM57.7786 57.9736C57.7786 58.0813 57.8659 58.1686 57.9736 58.1686H69.5688V61.7088H55.026C54.5911 61.7088 54.2385 61.3561 54.2385 60.9212V24.568C54.2385 24.1331 54.5911 23.7805 55.026 23.7805H81.554C81.989 23.7805 82.3416 24.1331 82.3416 24.568V30.2682H79.784V27.5156C79.784 27.4079 79.6967 27.3206 79.589 27.3206H57.9736C57.8659 27.3206 57.7786 27.4079 57.7786 27.5156V57.9736ZM3.93506 41.0759C3.82738 41.0759 3.74009 41.1631 3.74009 41.2708V47.1659C3.74009 48.9015 5.14705 50.3085 6.88261 50.3085H51.8835V53.8486H47.6211C47.5584 53.8486 47.4996 53.8787 47.4629 53.9295C47.4263 53.9804 47.4163 54.0457 47.4361 54.1052L49.0187 58.8587C49.0405 58.9242 49.0953 58.9733 49.1628 58.9878L51.8835 59.5715L51.8835 62.2H26.533C25.8789 62.2 25.3303 61.7065 25.2613 61.0561C25.1923 60.4057 25.6252 59.808 26.2647 59.6708L29.4486 58.9878C29.5161 58.9733 29.5709 58.9242 29.5927 58.8587L31.1753 54.1052C31.1951 54.0457 31.1851 53.9804 31.1485 53.9295C31.1118 53.8787 31.053 53.8486 30.9903 53.8486H4.91757C2.3121 53.8486 0.199951 51.7365 0.199951 49.131V4.91764C0.199951 2.31216 2.3121 0.200012 4.91758 0.200012H73.6939C76.2994 0.200012 78.4115 2.31216 78.4115 4.91764V20.443H74.8714V6.88267C74.8714 5.14711 73.4644 3.74015 71.7289 3.74015H6.88262C5.14705 3.74015 3.74009 5.14711 3.74009 6.88267V37.3408C3.74009 37.4484 3.82738 37.5357 3.93506 37.5357H51.8835V41.0759H3.93506ZM34.2185 53.8486C34.136 53.8486 34.0625 53.9005 34.0348 53.9783L32.1141 59.3821C32.0929 59.4418 32.102 59.5081 32.1386 59.5599C32.1751 59.6116 32.2345 59.6424 32.2978 59.6424H46.3135C46.3743 59.6424 46.4316 59.6141 46.4685 59.5658C46.5053 59.5176 46.5176 59.4549 46.5017 59.3962L45.0314 53.9924C45.0083 53.9075 44.9312 53.8486 44.8432 53.8486H34.2185ZM41.0758 46.1834C41.0758 46.8897 40.5032 47.4622 39.797 47.4622C39.0908 47.4622 38.5182 46.8897 38.5182 46.1834C38.5182 45.4772 39.0908 44.9046 39.797 44.9046C40.5032 44.9046 41.0758 45.4772 41.0758 46.1834ZM72.9063 34.3932C72.9063 33.9582 73.2589 33.6056 73.6939 33.6056H89.4142C89.8491 33.6056 90.2017 33.9582 90.2017 34.3932V60.9212C90.2017 61.3562 89.8491 61.7088 89.4142 61.7088H73.6939C73.2589 61.7088 72.9063 61.3562 72.9063 60.9212V34.3932ZM83.3241 53.5523C83.3241 54.2586 82.7516 54.8311 82.0453 54.8311C81.339 54.8311 80.7665 54.2586 80.7665 53.5523C80.7665 52.846 81.339 52.2735 82.0453 52.2735C82.7516 52.2735 83.3241 52.846 83.3241 53.5523ZM69.5688 53.5523C69.5688 54.2586 68.9962 54.8311 68.29 54.8311C67.5838 54.8311 67.0112 54.2586 67.0112 53.5523C67.0112 52.846 67.5838 52.2735 68.29 52.2735C68.9962 52.2735 69.5688 52.846 69.5688 53.5523ZM38.2189 12.1906C38.2189 11.4996 38.8101 10.9233 39.5596 10.9233H68.1461C68.8957 10.9233 69.4869 11.4996 69.4869 12.1906C69.4869 12.8816 68.8957 13.4579 68.1461 13.4579H39.5596C38.8101 13.4579 38.2189 12.8816 38.2189 12.1906ZM38.2188 19.0145C38.2188 18.3235 38.81 17.7472 39.5596 17.7472H45.6534C46.403 17.7472 46.9941 18.3235 46.9941 19.0145C46.9941 19.7055 46.403 20.2818 45.6534 20.2818H39.5596C38.81 20.2818 38.2188 19.7055 38.2188 19.0145ZM49.9437 19.0145C49.9437 18.3235 50.5348 17.7472 51.2844 17.7472H68.658C69.4076 17.7472 69.9988 18.3235 69.9988 19.0145C69.9988 19.7055 69.4076 20.2818 68.658 20.2818H51.2844C50.5348 20.2818 49.9437 19.7055 49.9437 19.0145ZM38.2189 25.8384C38.2189 25.1474 38.8101 24.5711 39.5597 24.5711H48.6493C49.3989 24.5711 49.9901 25.1474 49.9901 25.8384C49.9901 26.5294 49.3989 27.1057 48.6493 27.1057H39.5597C38.8101 27.1057 38.2189 26.5294 38.2189 25.8384Z" fill="#00458C"/>
</svg>
