<svg width="104" height="62" viewBox="0 0 104 62" fill="none" xmlns="http://www.w3.org/2000/svg">
<path fill-rule="evenodd" clip-rule="evenodd" d="M5.92833 19.6782C5.92833 18.7342 6.72291 17.9854 7.68244 17.9854H30.7277C31.6873 17.9854 32.4818 18.7342 32.4818 19.6782C32.4818 20.6223 31.6873 21.3711 30.7277 21.3711H7.68244C6.72291 21.3711 5.92833 20.6223 5.92833 19.6782ZM0 26.6489C0 25.7048 0.794576 24.956 1.7541 24.956H7.93047C8.89 24.956 9.68457 25.7048 9.68457 26.6489C9.68457 27.5929 8.89 28.3418 7.93047 28.3418H1.7541C0.794575 28.3418 0 27.5929 0 26.6489ZM11.8836 26.6489C11.8836 25.7048 12.6782 24.956 13.6377 24.956H31.2466C32.2061 24.956 33.0007 25.7048 33.0007 26.6489C33.0007 27.5929 32.2061 28.3418 31.2466 28.3418H13.6377C12.6782 28.3418 11.8836 27.5929 11.8836 26.6489ZM9.88041 12.7076C9.88041 11.7636 10.675 11.0147 11.6345 11.0147H26.7755C27.735 11.0147 28.5296 11.7636 28.5296 12.7076C28.5296 13.6516 27.735 14.4005 26.7755 14.4005H11.6345C10.675 14.4005 9.88041 13.6516 9.88041 12.7076Z" fill="#00458C"/>
<path fill-rule="evenodd" clip-rule="evenodd" d="M72.0775 3.62703V27.8936H96.0595C95.8861 27.4453 95.6842 26.9443 95.4535 26.4038C94.5008 24.171 93.0791 21.3132 91.1864 18.7189C85.1532 10.4493 79.8126 6.67743 76.1079 4.95414C74.4073 4.16307 73.0356 3.79609 72.0775 3.62703ZM98.5076 29.6363L100.163 29.1341C100.178 29.182 100.19 29.2304 100.2 29.2793L103.899 47.0897C104.509 50.0281 102.284 52.7888 99.3051 52.7888H91.5914V49.3034H99.3051C100.089 49.3034 100.675 48.577 100.514 47.8037L97.103 31.3789H70.3485C69.3935 31.3789 68.6194 30.5987 68.6194 29.6363V3.49636H21.9344C21.2523 3.49636 20.6994 4.05365 20.6994 4.74111V48.0587C20.6994 48.7461 21.2523 49.3034 21.9344 49.3034H28.3567V52.7888H21.9344C19.3425 52.7888 17.2412 50.671 17.2412 48.0587V4.74111C17.2412 2.12876 19.3425 0.0110347 21.9344 0.0110347H70.2848C70.3149 0.00911193 70.3502 0.00718409 70.3906 0.00548999C70.5003 0.000887624 70.6478 -0.00198823 70.8311 0.00164594C71.1979 0.00891653 71.7075 0.0422335 72.3446 0.139665C73.6208 0.334812 75.3988 0.785653 77.5571 1.7896C81.8802 3.80057 87.6551 7.99518 93.9724 16.6543C96.0755 19.5369 97.6179 22.654 98.6303 25.0268C99.1388 26.2184 99.5188 27.2346 99.7729 27.9569C99.9001 28.3183 99.996 28.6069 100.061 28.8078C100.093 28.9083 100.118 28.987 100.135 29.042L100.155 29.1065L100.161 29.125L100.162 29.1307L100.163 29.1327L100.163 29.1341C100.163 29.1341 100.163 29.1341 98.5076 29.6363ZM74.3006 52.7888H45.6474V49.3034H74.3006V52.7888Z" fill="#00458C"/>
<path fill-rule="evenodd" clip-rule="evenodd" d="M37.7431 59.0126C41.5629 59.0126 44.6594 55.8917 44.6594 52.0419C44.6594 48.1922 41.5629 45.0713 37.7431 45.0713C33.9233 45.0713 30.8268 48.1922 30.8268 52.0419C30.8268 55.8917 33.9233 59.0126 37.7431 59.0126ZM37.7431 62C43.1999 62 47.6235 57.5416 47.6235 52.0419C47.6235 46.5423 43.1999 42.0839 37.7431 42.0839C32.2863 42.0839 27.8627 46.5423 27.8627 52.0419C27.8627 57.5416 32.2863 62 37.7431 62Z" fill="#00458C"/>
<path fill-rule="evenodd" clip-rule="evenodd" d="M82.205 59.0126C86.0247 59.0126 89.1213 55.8917 89.1213 52.0419C89.1213 48.1922 86.0247 45.0713 82.205 45.0713C78.3852 45.0713 75.2887 48.1922 75.2887 52.0419C75.2887 55.8917 78.3852 59.0126 82.205 59.0126ZM82.205 62C87.6618 62 92.0854 57.5416 92.0854 52.0419C92.0854 46.5423 87.6618 42.0839 82.205 42.0839C76.7482 42.0839 72.3245 46.5423 72.3245 52.0419C72.3245 57.5416 76.7482 62 82.205 62Z" fill="#00458C"/>
<path d="M39.2252 52.0419C39.2252 52.8669 38.5617 53.5356 37.7431 53.5356C36.9246 53.5356 36.2611 52.8669 36.2611 52.0419C36.2611 51.217 36.9246 50.5482 37.7431 50.5482C38.5617 50.5482 39.2252 51.217 39.2252 52.0419Z" fill="#00458C"/>
<path d="M83.6871 52.0419C83.6871 52.8669 83.0235 53.5356 82.205 53.5356C81.3865 53.5356 80.7229 52.8669 80.7229 52.0419C80.7229 51.217 81.3865 50.5482 82.205 50.5482C83.0235 50.5482 83.6871 51.217 83.6871 52.0419Z" fill="#00458C"/>
<path d="M30.8268 12.7076C30.8268 11.7636 31.6214 11.0147 32.5809 11.0147H38.7573C39.7168 11.0147 40.5114 11.7636 40.5114 12.7076C40.5114 13.6516 39.7168 14.4005 38.7573 14.4005H32.5809C31.6214 14.4005 30.8268 13.6516 30.8268 12.7076Z" fill="#00458C"/>
</svg>
