<svg width="91" height="70" viewBox="0 0 91 70" fill="none" xmlns="http://www.w3.org/2000/svg">
<path d="M34.9919 18.6901L51.1544 15.1646L80.1074 33.8104L82.0875 30.3752L89.0748 41.0044L76.3909 40.258L78.394 36.783L50.5617 18.8029L34.3684 22.3352L5.46558 2.92694L7.25659 0L34.9919 18.6901Z" fill="#00458C"/>
<path fill-rule="evenodd" clip-rule="evenodd" d="M26.2889 56.5378V63.541C26.2889 65.0413 25.4835 66.4242 24.1827 67.1689C24.1562 67.1841 24.1294 67.199 24.1025 67.2137C17.2721 70.9288 9.01676 70.9288 2.18642 67.2137C2.15946 67.199 2.13271 67.1841 2.10616 67.1689C0.805393 66.4242 0 65.0413 0 63.541V56.0337L3.09281 59.3334V62.8721C3.09281 63.1054 3.14003 63.3323 3.22794 63.541C3.34808 63.8262 3.54422 64.0773 3.79971 64.2644C3.8324 64.2883 3.86606 64.3112 3.90067 64.333C9.54806 67.8863 16.7408 67.8863 22.3882 64.333C22.4228 64.3112 22.4565 64.2883 22.4892 64.2644C22.7447 64.0773 22.9408 63.8262 23.0609 63.541C23.1489 63.3323 23.1961 63.1054 23.1961 62.8721V59.0584L26.2889 56.5378Z" fill="#00458C"/>
<path fill-rule="evenodd" clip-rule="evenodd" d="M26.2889 49.4801V56.4833C26.2889 57.9836 25.4835 59.3665 24.1827 60.1112C24.1562 60.1264 24.1294 60.1413 24.1025 60.156C17.2721 63.8711 9.01676 63.8711 2.18642 60.156C2.15946 60.1413 2.13271 60.1264 2.10616 60.1112C0.805393 59.3665 0 57.9836 0 56.4833V48.976L3.09281 52.2757V55.8144C3.09281 56.0477 3.14003 56.2746 3.22794 56.4833C3.34808 56.7685 3.54422 57.0196 3.79971 57.2067C3.8324 57.2306 3.86606 57.2535 3.90067 57.2753C9.54806 60.8286 16.7408 60.8286 22.3882 57.2753C22.4228 57.2535 22.4565 57.2306 22.4892 57.2067C22.7447 57.0196 22.9408 56.7685 23.0609 56.4833C23.1489 56.2746 23.1961 56.0477 23.1961 55.8144V52.0007L26.2889 49.4801Z" fill="#00458C"/>
<path fill-rule="evenodd" clip-rule="evenodd" d="M26.2889 42.4224V49.4256C26.2889 50.9259 25.4835 52.3088 24.1827 53.0535C24.1562 53.0687 24.1294 53.0836 24.1025 53.0983C17.2721 56.8133 9.01676 56.8133 2.18642 53.0983C2.15946 53.0836 2.13271 53.0687 2.10616 53.0535C0.805393 52.3088 0 50.9259 0 49.4256V41.9183L3.09281 45.218V48.7567C3.09281 48.99 3.14003 49.2169 3.22794 49.4256C3.34808 49.7108 3.54422 49.9619 3.79971 50.149C3.8324 50.1729 3.86606 50.1958 3.90067 50.2175C9.54806 53.7709 16.7408 53.7709 22.3882 50.2175C22.4228 50.1958 22.4565 50.1729 22.4892 50.149C22.7447 49.9619 22.9408 49.7108 23.0609 49.4256C23.1489 49.2169 23.1961 48.99 23.1961 48.7567V44.943L26.2889 42.4224Z" fill="#00458C"/>
<path fill-rule="evenodd" clip-rule="evenodd" d="M26.2889 35.3647V42.3679C26.2889 43.8682 25.4835 45.2511 24.1827 45.9958C24.1562 46.011 24.1294 46.0259 24.1025 46.0406C17.2721 49.7556 9.01676 49.7556 2.18642 46.0406C2.15946 46.0259 2.13271 46.011 2.10616 45.9958C0.805393 45.2511 0 43.8682 0 42.3679V34.8606L3.09281 38.1603V41.699C3.09281 41.9323 3.14003 42.1592 3.22794 42.3679C3.34808 42.6531 3.54422 42.9042 3.79971 43.0912C3.8324 43.1152 3.86606 43.1381 3.90067 43.1598C9.54806 46.7132 16.7408 46.7132 22.3882 43.1598C22.4228 43.1381 22.4565 43.1152 22.4892 43.0912C22.7447 42.9042 22.9408 42.6531 23.0609 42.3679C23.1489 42.1592 23.1961 41.9323 23.1961 41.699V37.8853L26.2889 35.3647Z" fill="#00458C"/>
<path fill-rule="evenodd" clip-rule="evenodd" d="M26.2889 28.307V35.3102C26.2889 36.8105 25.4835 38.1934 24.1827 38.938C24.1562 38.9532 24.1294 38.9682 24.1025 38.9828C17.2721 42.6979 9.01676 42.6979 2.18642 38.9828C2.15946 38.9682 2.13271 38.9532 2.10616 38.938C0.805393 38.1934 0 36.8105 0 35.3102V27.8028L3.09281 31.1026V34.6413C3.09281 34.8746 3.14003 35.1015 3.22794 35.3102C3.34808 35.5953 3.54422 35.8465 3.79971 36.0335C3.8324 36.0575 3.86606 36.0804 3.90067 36.1021C9.54806 39.6554 16.7408 39.6554 22.3882 36.1021C22.4228 36.0804 22.4565 36.0575 22.4892 36.0335C22.7447 35.8465 22.9408 35.5953 23.0609 35.3102C23.1489 35.1015 23.1961 34.8746 23.1961 34.6413V30.8276L26.2889 28.307Z" fill="#00458C"/>
<path fill-rule="evenodd" clip-rule="evenodd" d="M21.0824 30.2357C23.1386 29.2105 23.2556 28.3538 23.2556 28.307C23.2556 28.2601 23.1386 27.4035 21.0824 26.3783C19.2076 25.4436 16.4054 24.7781 13.1444 24.7781C9.88351 24.7781 7.08125 25.4436 5.20647 26.3783C3.15025 27.4035 3.03333 28.2601 3.03333 28.307C3.03333 28.3538 3.15025 29.2105 5.20647 30.2357C7.08125 31.1704 9.88351 31.8358 13.1444 31.8358C16.4054 31.8358 19.2076 31.1704 21.0824 30.2357ZM13.1444 34.8606C20.4039 34.8606 26.2889 31.9264 26.2889 28.307C26.2889 24.6875 20.4039 21.7534 13.1444 21.7534C5.88497 21.7534 0 24.6875 0 28.307C0 31.9264 5.88497 34.8606 13.1444 34.8606Z" fill="#00458C"/>
<path fill-rule="evenodd" clip-rule="evenodd" d="M58.6444 56.5378V63.541C58.6444 65.0413 57.8391 66.4242 56.5383 67.1689C56.5117 67.1841 56.485 67.199 56.458 67.2137C49.6277 70.9288 41.3723 70.9288 34.542 67.2137C34.515 67.199 34.4883 67.1841 34.4617 67.1689C33.1609 66.4242 32.3556 65.0413 32.3556 63.541V56.0337L35.4484 59.3334V62.8721C35.4484 63.1054 35.4956 63.3323 35.5835 63.541C35.7036 63.8262 35.8998 64.0773 36.1553 64.2644C36.188 64.2883 36.2216 64.3112 36.2562 64.333C41.9036 67.8863 49.0964 67.8863 54.7438 64.333C54.7784 64.3112 54.812 64.2883 54.8447 64.2644C55.1002 64.0773 55.2964 63.8262 55.4165 63.541C55.5044 63.3323 55.5516 63.1054 55.5516 62.8721V59.0584L58.6444 56.5378Z" fill="#00458C"/>
<path fill-rule="evenodd" clip-rule="evenodd" d="M58.6444 49.4801V56.4833C58.6444 57.9836 57.8391 59.3665 56.5383 60.1112C56.5117 60.1264 56.485 60.1413 56.458 60.156C49.6277 63.8711 41.3723 63.8711 34.542 60.156C34.515 60.1413 34.4883 60.1264 34.4617 60.1112C33.1609 59.3665 32.3556 57.9836 32.3556 56.4833V48.976L35.4484 52.2757V55.8144C35.4484 56.0477 35.4956 56.2746 35.5835 56.4833C35.7036 56.7685 35.8998 57.0196 36.1553 57.2067C36.188 57.2306 36.2216 57.2535 36.2562 57.2753C41.9036 60.8286 49.0964 60.8286 54.7438 57.2753C54.7784 57.2535 54.812 57.2306 54.8447 57.2067C55.1002 57.0196 55.2964 56.7685 55.4165 56.4833C55.5044 56.2746 55.5516 56.0477 55.5516 55.8144V52.0007L58.6444 49.4801Z" fill="#00458C"/>
<path fill-rule="evenodd" clip-rule="evenodd" d="M58.6444 42.4224V49.4256C58.6444 50.9259 57.8391 52.3088 56.5383 53.0535C56.5117 53.0687 56.485 53.0836 56.458 53.0983C49.6277 56.8133 41.3723 56.8133 34.542 53.0983C34.515 53.0836 34.4883 53.0687 34.4617 53.0535C33.1609 52.3088 32.3556 50.9259 32.3556 49.4256V41.9183L35.4484 45.218V48.7567C35.4484 48.99 35.4956 49.2169 35.5835 49.4256C35.7036 49.7108 35.8998 49.9619 36.1553 50.149C36.188 50.1729 36.2216 50.1958 36.2562 50.2175C41.9036 53.7709 49.0964 53.7709 54.7438 50.2175C54.7784 50.1958 54.812 50.1729 54.8447 50.149C55.1002 49.9619 55.2964 49.7108 55.4165 49.4256C55.5044 49.2169 55.5516 48.99 55.5516 48.7567V44.943L58.6444 42.4224Z" fill="#00458C"/>
<path fill-rule="evenodd" clip-rule="evenodd" d="M53.438 44.3511C55.4942 43.3259 55.6111 42.4692 55.6111 42.4224C55.6111 42.3756 55.4942 41.5189 53.438 40.4937C51.5632 39.559 48.7609 38.8935 45.5 38.8935C42.2391 38.8935 39.4368 39.559 37.562 40.4937C35.5058 41.5189 35.3889 42.3756 35.3889 42.4224C35.3889 42.4692 35.5058 43.3259 37.562 44.3511C39.4368 45.2858 42.2391 45.9512 45.5 45.9512C48.7609 45.9512 51.5632 45.2858 53.438 44.3511ZM45.5 48.976C52.7595 48.976 58.6444 46.0418 58.6444 42.4224C58.6444 38.8029 52.7595 35.8688 45.5 35.8688C38.2405 35.8688 32.3556 38.8029 32.3556 42.4224C32.3556 46.0418 38.2405 48.976 45.5 48.976Z" fill="#00458C"/>
<path fill-rule="evenodd" clip-rule="evenodd" d="M91 56.5378V63.541C91 65.0413 90.1946 66.4242 88.8939 67.1689C88.8673 67.1841 88.8405 67.199 88.8136 67.2137C81.9832 70.9288 73.7279 70.9288 66.8975 67.2137C66.8706 67.199 66.8438 67.1841 66.8173 67.1689C65.5165 66.4242 64.7111 65.0413 64.7111 63.541V56.0337L67.8039 59.3334V62.8722C67.8039 63.1055 67.8511 63.3323 67.9391 63.541C68.0592 63.8262 68.2553 64.0773 68.5108 64.2644C68.5435 64.2883 68.5772 64.3112 68.6118 64.333C74.2592 67.8863 81.4519 67.8863 87.0993 64.333C87.1339 64.3112 87.1676 64.2883 87.2003 64.2644C87.4558 64.0773 87.6519 63.8262 87.7721 63.541C87.86 63.3323 87.9072 63.1055 87.9072 62.8722V59.0584L91 56.5378Z" fill="#00458C"/>
<path fill-rule="evenodd" clip-rule="evenodd" d="M85.7935 58.4665C87.8498 57.4413 87.9667 56.5846 87.9667 56.5378C87.9667 56.491 87.8498 55.6343 85.7935 54.6091C83.9188 53.6744 81.1165 53.009 77.8556 53.009C74.5946 53.009 71.7924 53.6744 69.9176 54.6091C67.8614 55.6343 67.7444 56.491 67.7444 56.5378C67.7444 56.5846 67.8614 57.4413 69.9176 58.4665C71.7924 59.4012 74.5946 60.0667 77.8556 60.0667C81.1165 60.0667 83.9188 59.4012 85.7935 58.4665ZM77.8556 63.0914C85.115 63.0914 91 60.1573 91 56.5378C91 52.9184 85.115 49.9842 77.8556 49.9842C70.5961 49.9842 64.7111 52.9184 64.7111 56.5378C64.7111 60.1573 70.5961 63.0914 77.8556 63.0914Z" fill="#00458C"/>
</svg>
