<svg width="63" height="65" viewBox="0 0 63 65" fill="none" xmlns="http://www.w3.org/2000/svg">
<path fill-rule="evenodd" clip-rule="evenodd" d="M31.915 23.5736C34.0078 20.7609 35.2643 17.1405 35.2643 14C35.2643 7.85155 30.4858 3.05882 24.8232 3.05882C19.1605 3.05882 14.382 7.85155 14.382 14C14.382 17.1405 15.6385 20.7609 17.7313 23.5736C19.8454 26.4151 22.4138 27.9412 24.8232 27.9412C27.2325 27.9412 29.8009 26.4151 31.915 23.5736ZM24.8232 31C32.279 31 38.3232 21.732 38.3232 14C38.3232 6.26801 32.279 0 24.8232 0C17.3673 0 11.3232 6.26801 11.3232 14C11.3232 21.732 17.3673 31 24.8232 31ZM22.1745 36.0588C22.2042 36.1663 22.2348 36.2764 22.2662 36.3886C22.4656 37.1011 22.6912 37.8804 22.8929 38.5662H25.6709C25.7661 38.201 25.8814 37.7789 26.0046 37.3386C26.1209 36.9231 26.2456 36.4865 26.3692 36.0588H22.1745ZM29.3561 36.0588C29.1641 36.7132 28.9536 37.4418 28.7662 38.1114C28.6112 38.6653 28.4745 39.1698 28.3776 39.5557C28.3369 39.7176 28.3052 39.8506 28.2827 39.9532L30.7211 50.6822C30.8201 51.1178 30.7104 51.5747 30.4244 51.9179L25.4244 57.9179C25.1437 58.2547 24.7244 58.4446 24.2862 58.4333C23.8479 58.4221 23.4389 58.211 23.1758 57.8603L18.6758 51.8603C18.4363 51.5409 18.3408 51.1362 18.4122 50.7435L20.3508 40.0815C20.1055 39.2581 19.7812 38.1498 19.5046 37.1614C19.3954 36.7711 19.2924 36.3952 19.2041 36.0605C10.4441 36.187 3.38182 43.3276 3.38182 52.1176V59.9412H37.5497C38.5533 61.1491 39.7562 62.1855 41.1079 63H0.322998V52.1176C0.322998 41.5592 8.88226 33 19.4406 33H30.2054C35.1756 33 39.7028 34.8967 43.1027 38.0057C42.0808 38.4167 41.1184 38.9447 40.2324 39.5732C37.4846 37.374 33.9986 36.0588 30.2054 36.0588H29.3561ZM23.0195 41.4338H25.6784L27.7677 50.6266L24.3821 54.6892L21.3456 50.6405L23.0195 41.4338Z" fill="#00458C"/>
<path d="M62.3231 51C62.3231 58.732 56.0551 65 48.3231 65C40.5911 65 34.3231 58.732 34.3231 51C34.3231 43.268 40.5911 37 48.3231 37C56.0551 37 62.3231 43.268 62.3231 51Z" fill="white"/>
<path fill-rule="evenodd" clip-rule="evenodd" d="M48.3231 44.6C47.4395 44.6 46.7231 43.8837 46.7231 43V40.3177C41.8738 41.0379 38.076 44.9815 37.5784 49.9H40.8231C41.7068 49.9 42.4231 50.6163 42.4231 51.5C42.4231 52.3837 41.7068 53.1 40.8231 53.1H37.7272C38.6032 57.5456 42.2072 61.0117 46.7231 61.6823V59.5C46.7231 58.6163 47.4395 57.9 48.3231 57.9C49.2068 57.9 49.9231 58.6163 49.9231 59.5V61.6823C54.439 61.0117 58.043 57.5456 58.9191 53.1H56.3234C55.4397 53.1 54.7231 52.3837 54.7231 51.5C54.7231 50.6163 55.4395 49.9 56.3231 49.9H59.0678C58.5702 44.9815 54.7724 41.0379 49.9231 40.3177V43C49.9231 43.8837 49.2068 44.6 48.3231 44.6ZM48.9129 64.9878C56.3713 64.6787 62.3231 58.5344 62.3231 51C62.3231 43.268 56.0551 37 48.3231 37C40.5911 37 34.3231 43.268 34.3231 51C34.3231 58.5344 40.2749 64.6787 47.7334 64.9878C47.9289 64.9959 48.1256 65 48.3231 65C48.5207 65 48.7173 64.9959 48.9129 64.9878Z" fill="#00458C"/>
<path fill-rule="evenodd" clip-rule="evenodd" d="M48.3231 45.5C49.1515 45.5 49.8231 46.1716 49.8231 47V51.2664L53.744 54.316C54.3979 54.8246 54.5157 55.767 54.0071 56.4209C53.4985 57.0748 52.5561 57.1926 51.9022 56.684L47.4022 53.184C47.0368 52.8998 46.8231 52.4629 46.8231 52V47C46.8231 46.1716 47.4946 45.5 48.3231 45.5Z" fill="#00458C"/>
</svg>
