<svg width="68" height="75" viewBox="0 0 68 75" fill="none" xmlns="http://www.w3.org/2000/svg">
<path fill-rule="evenodd" clip-rule="evenodd" d="M39.8621 30.2083C47.3444 30.2083 53.41 24.1455 53.41 16.6667C53.41 9.18781 47.3444 3.125 39.8621 3.125C32.3798 3.125 26.3142 9.18781 26.3142 16.6667C26.3142 24.1455 32.3798 30.2083 39.8621 30.2083ZM39.8621 33.3333C49.071 33.3333 56.5364 25.8714 56.5364 16.6667C56.5364 7.46192 49.071 0 39.8621 0C30.6531 0 23.1877 7.46192 23.1877 16.6667C23.1877 25.8714 30.6531 33.3333 39.8621 33.3333Z" fill="#00458C"/>
<path fill-rule="evenodd" clip-rule="evenodd" d="M35.7121 36.4362C36.5649 36.4355 37.2567 37.1263 37.2567 37.9787C37.2567 38.8321 36.5636 39.5233 35.7098 39.5212L28.0781 39.5035C27.2253 39.4989 26.5284 38.8224 26.4986 37.9706C26.4696 37.1368 27.137 36.4447 27.9715 36.443L35.7121 36.4362Z" fill="#00458C"/>
<path fill-rule="evenodd" clip-rule="evenodd" d="M52.8889 30.2083C52.8889 29.3454 53.5888 28.6458 54.4521 28.6458H63.8314C64.6947 28.6458 65.3946 29.3454 65.3946 30.2083C65.3946 31.0713 64.6947 31.7708 63.8314 31.7708H54.4521C53.5888 31.7708 52.8889 31.0713 52.8889 30.2083ZM38.8199 38.0208C38.8199 37.1579 39.5198 36.4583 40.3831 36.4583H61.226C62.0894 36.4583 62.7893 37.1579 62.7893 38.0208C62.7893 38.8838 62.0894 39.5833 61.226 39.5833H40.3831C39.5198 39.5833 38.8199 38.8838 38.8199 38.0208ZM32.046 45.3125C32.046 44.4496 32.7458 43.75 33.6092 43.75H42.9885C43.8518 43.75 44.5517 44.4496 44.5517 45.3125C44.5517 46.1754 43.8518 46.875 42.9885 46.875H33.6092C32.7458 46.875 32.046 46.1754 32.046 45.3125ZM45.5939 45.3125C45.5939 44.4496 46.2937 43.75 47.1571 43.75H58.6207C59.484 43.75 60.1839 44.4496 60.1839 45.3125C60.1839 46.1754 59.484 46.875 58.6207 46.875H47.1571C46.2937 46.875 45.5939 46.1754 45.5939 45.3125Z" fill="#00458C"/>
<path fill-rule="evenodd" clip-rule="evenodd" d="M0 15.1042C0 14.0974 0.816523 13.2812 1.82375 13.2812H11.2031C12.0417 13.2812 12.7723 13.8529 12.9735 14.6667L14.4342 20.5729H20.477C21.4842 20.5729 22.3007 21.3891 22.3007 22.3958C22.3007 23.4026 21.4842 24.2187 20.477 24.2187H15.3358L21.9048 51.0417H55.7028L63.721 24.2187H59.1417C58.1345 24.2187 57.318 23.4026 57.318 22.3958C57.318 21.3891 58.1345 20.5729 59.1417 20.5729H66.1762C66.7532 20.5729 67.2962 20.8458 67.6403 21.3088C67.9843 21.7718 68.0889 22.3702 67.9222 22.9224L58.8035 53.1307C58.5711 53.9004 57.8618 54.4271 57.0575 54.4271H22.7756L24.1137 60.4167H53.931C53.931 60.4167 55.7028 61.4583 57.318 61.9792C57.318 62.9859 51.5513 63.5417 50.5441 63.5417H22.9272C22.0797 63.5417 21.0833 63.2185 20.8907 62.3936L18.7037 53.03L9.77523 16.9271H1.82375C0.816523 16.9271 0 16.1109 0 15.1042Z" fill="#00458C"/>
<path d="M38.8011 13.7889C38.8011 14.2889 38.7104 14.7451 38.5291 15.1576C38.3478 15.5701 38.107 15.9264 37.8069 16.2264C37.5068 16.5201 37.1566 16.7482 36.7564 16.9107C36.3625 17.0732 35.9498 17.1545 35.5183 17.1545C35.0431 17.1545 34.6054 17.0732 34.2052 16.9107C33.8113 16.7482 33.4674 16.5201 33.1735 16.2264C32.8859 15.9264 32.6608 15.5701 32.4982 15.1576C32.3356 14.7451 32.2543 14.2889 32.2543 13.7889C32.2543 13.2701 32.3356 12.8014 32.4982 12.3826C32.6608 11.9576 32.8859 11.5951 33.1735 11.2951C33.4674 10.9951 33.8113 10.7639 34.2052 10.6014C34.6054 10.4326 35.0431 10.3482 35.5183 10.3482C35.9936 10.3482 36.4313 10.4326 36.8315 10.6014C37.2379 10.7639 37.5849 10.9951 37.8726 11.2951C38.1664 11.5951 38.3947 11.9576 38.5572 12.3826C38.7198 12.8014 38.8011 13.2701 38.8011 13.7889ZM36.5688 13.7889C36.5688 13.4701 36.5407 13.2076 36.4844 13.0014C36.4344 12.7889 36.3625 12.6201 36.2687 12.4951C36.1749 12.3701 36.0623 12.2826 35.931 12.2326C35.806 12.1826 35.6684 12.1576 35.5183 12.1576C35.3683 12.1576 35.2307 12.1826 35.1057 12.2326C34.9806 12.2826 34.8743 12.3701 34.7868 12.4951C34.6992 12.6201 34.6304 12.7889 34.5804 13.0014C34.5304 13.2076 34.5054 13.4701 34.5054 13.7889C34.5054 14.0889 34.5304 14.3389 34.5804 14.5389C34.6304 14.7389 34.6992 14.8982 34.7868 15.017C34.8743 15.1357 34.9806 15.2201 35.1057 15.2701C35.2307 15.3201 35.3683 15.3451 35.5183 15.3451C35.6684 15.3451 35.806 15.3201 35.931 15.2701C36.0623 15.2201 36.1749 15.1357 36.2687 15.017C36.3625 14.8982 36.4344 14.7389 36.4844 14.5389C36.5407 14.3389 36.5688 14.0889 36.5688 13.7889ZM43.0968 10.9107C43.1906 10.8045 43.3063 10.7076 43.4439 10.6201C43.5814 10.5264 43.7721 10.4795 44.016 10.4795H46.1357L35.8372 23.7264C35.7435 23.8451 35.6246 23.9451 35.4808 24.0264C35.3433 24.1014 35.1744 24.1389 34.9743 24.1389H32.7983L43.0968 10.9107ZM46.661 20.9326C46.661 21.4326 46.5703 21.892 46.389 22.3107C46.2076 22.7232 45.9669 23.0795 45.6668 23.3795C45.3666 23.6732 45.0165 23.9014 44.6163 24.0639C44.2223 24.2264 43.8097 24.3076 43.3782 24.3076C42.903 24.3076 42.4653 24.2264 42.0651 24.0639C41.6712 23.9014 41.3273 23.6732 41.0334 23.3795C40.7457 23.0795 40.5206 22.7232 40.3581 22.3107C40.1955 21.892 40.1142 21.4326 40.1142 20.9326C40.1142 20.4139 40.1955 19.9451 40.3581 19.5264C40.5206 19.1014 40.7457 18.7389 41.0334 18.4389C41.3273 18.1389 41.6712 17.9076 42.0651 17.7451C42.4653 17.5764 42.903 17.492 43.3782 17.492C43.8534 17.492 44.2911 17.5764 44.6913 17.7451C45.0977 17.9076 45.4448 18.1389 45.7324 18.4389C46.0263 18.7389 46.2545 19.1014 46.4171 19.5264C46.5797 19.9451 46.661 20.4139 46.661 20.9326ZM44.4287 20.9326C44.4287 20.6201 44.4006 20.3607 44.3443 20.1545C44.2943 19.942 44.2223 19.7732 44.1286 19.6482C44.0348 19.5232 43.9222 19.4357 43.7909 19.3857C43.6658 19.3357 43.5283 19.3107 43.3782 19.3107C43.2281 19.3107 43.0906 19.3357 42.9655 19.3857C42.8405 19.4357 42.7342 19.5232 42.6466 19.6482C42.5591 19.7732 42.4903 19.942 42.4403 20.1545C42.3903 20.3607 42.3652 20.6201 42.3652 20.9326C42.3652 21.2326 42.3903 21.4826 42.4403 21.6826C42.4903 21.8826 42.5591 22.042 42.6466 22.1607C42.7342 22.2795 42.8405 22.3639 42.9655 22.4139C43.0906 22.4639 43.2281 22.4889 43.3782 22.4889C43.5283 22.4889 43.6658 22.4639 43.7909 22.4139C43.9222 22.3639 44.0348 22.2795 44.1286 22.1607C44.2223 22.042 44.2943 21.8826 44.3443 21.6826C44.4006 21.4826 44.4287 21.2326 44.4287 20.9326Z" fill="#00458C"/>
<path fill-rule="evenodd" clip-rule="evenodd" d="M37.9528 16.3752C37.6329 16.6883 37.2598 16.9311 36.8355 17.1035C36.4162 17.2764 35.9766 17.3628 35.5184 17.3628C35.019 17.3628 34.5543 17.2773 34.1268 17.1038L34.1258 17.1033C33.7071 16.9306 33.34 16.6873 33.0262 16.3737L33.0231 16.3705C32.7154 16.0497 32.4762 15.67 32.3043 15.234C32.131 14.7943 32.046 14.3117 32.046 13.7889C32.046 13.2485 32.1307 12.7538 32.3038 12.3077C32.4753 11.8595 32.7146 11.4728 33.0231 11.151L33.0246 11.1494C33.3384 10.8291 33.7057 10.5822 34.125 10.4091C34.553 10.2288 35.0183 10.1399 35.5184 10.1399C36.0181 10.1399 36.4831 10.2286 36.9107 10.4087C37.3421 10.5814 37.7136 10.8284 38.0223 11.1502C38.3373 11.4719 38.58 11.8589 38.7518 12.3077C38.9249 12.7538 39.0096 13.2485 39.0096 13.7889C39.0096 14.3145 38.9141 14.7997 38.72 15.2414C38.5289 15.6761 38.2739 16.0543 37.9543 16.3737L37.9528 16.3752ZM37.8726 11.2951C37.5849 10.9951 37.2379 10.7639 36.8315 10.6014C36.4313 10.4326 35.9936 10.3482 35.5183 10.3482C35.0431 10.3482 34.6054 10.4326 34.2052 10.6014C33.8113 10.7639 33.4674 10.9951 33.1735 11.2951C32.8859 11.5951 32.6608 11.9576 32.4982 12.3826C32.3356 12.8014 32.2543 13.2701 32.2543 13.7889C32.2543 14.2889 32.3356 14.7451 32.4982 15.1576C32.6608 15.5701 32.8859 15.9264 33.1735 16.2264C33.4674 16.5201 33.8113 16.7482 34.2052 16.9107C34.6054 17.0732 35.0431 17.1545 35.5183 17.1545C35.9498 17.1545 36.3625 17.0732 36.7564 16.9107C37.1566 16.7482 37.5068 16.5201 37.8069 16.2264C38.107 15.9264 38.3478 15.5701 38.5291 15.1576C38.7104 14.7451 38.8011 14.2889 38.8011 13.7889C38.8011 13.2701 38.7198 12.8014 38.5572 12.3826C38.3947 11.9576 38.1664 11.5951 37.8726 11.2951ZM36.2816 13.0491C36.2357 12.8542 36.1731 12.7149 36.102 12.6201C36.0291 12.523 35.9473 12.4617 35.8569 12.4273L35.8537 12.4261C35.7559 12.387 35.645 12.366 35.5184 12.366C35.3918 12.366 35.2809 12.387 35.1831 12.4261C35.1006 12.4591 35.025 12.5182 34.9576 12.6146C34.8902 12.7107 34.8297 12.8521 34.7834 13.0491L34.783 13.0505C34.7383 13.2348 34.7139 13.4793 34.7139 13.7889C34.7139 14.0788 34.7382 14.3105 34.7827 14.4883C34.8285 14.6717 34.8882 14.8034 34.9546 14.8934C35.0214 14.984 35.0975 15.0425 35.1831 15.0767C35.2809 15.1158 35.3918 15.1368 35.5184 15.1368C35.645 15.1368 35.7559 15.1158 35.8537 15.0767L35.8569 15.0754C35.9503 15.0398 36.0328 14.9795 36.1052 14.8879C36.1753 14.7991 36.237 14.6695 36.2823 14.4883L36.2837 14.4824C36.3331 14.3069 36.3605 14.0775 36.3605 13.7889C36.3605 13.4805 36.333 13.2381 36.2834 13.0562L36.2816 13.0491ZM42.9406 10.7729C43.0485 10.6507 43.1788 10.5421 43.3294 10.446C43.5138 10.3215 43.7502 10.2712 44.0161 10.2712H46.5617L36.0009 23.8555C35.8889 23.9973 35.7486 24.1144 35.5834 24.2077L35.5807 24.2093C35.4052 24.305 35.1999 24.3472 34.9744 24.3472H32.3721L42.9406 10.7729ZM43.4439 10.6201C43.3063 10.7076 43.1906 10.8045 43.0968 10.9107L32.7983 24.1389H34.9743C35.1744 24.1389 35.3433 24.1014 35.4808 24.0264C35.6246 23.9451 35.7435 23.8451 35.8372 23.7264L46.1357 10.4795H44.016C43.7721 10.4795 43.5814 10.5264 43.4439 10.6201ZM46.5803 22.3935L46.5798 22.3946C46.3887 22.8292 46.1337 23.2074 45.8142 23.5268L45.8126 23.5283C45.4927 23.8415 45.1197 24.0843 44.6953 24.2567C44.276 24.4296 43.8364 24.516 43.3783 24.516C42.8788 24.516 42.4142 24.4305 41.9867 24.2569L41.9856 24.2564C41.567 24.0837 41.1999 23.8405 40.886 23.5268L40.8829 23.5237C40.5753 23.2028 40.336 22.8231 40.1642 22.3871L40.1638 22.3861C39.9909 21.9408 39.9058 21.4555 39.9058 20.9326C39.9058 20.3922 39.9905 19.8976 40.1636 19.4515C40.3352 19.0032 40.5744 18.6165 40.8829 18.2947L40.8845 18.2931C41.1982 17.9729 41.5656 17.7259 41.9849 17.5528C42.4128 17.3725 42.8781 17.2837 43.3783 17.2837C43.878 17.2837 44.3429 17.3724 44.7706 17.5524C45.202 17.7252 45.5735 17.9722 45.8822 18.2939C46.1972 18.6157 46.4399 19.0027 46.6117 19.4515C46.7848 19.8976 46.8694 20.3922 46.8694 20.9326C46.8694 21.4583 46.774 21.9462 46.5803 22.3935ZM46.4171 19.5264C46.2545 19.1014 46.0263 18.7389 45.7324 18.4389C45.4448 18.1389 45.0977 17.9076 44.6913 17.7451C44.2911 17.5764 43.8534 17.492 43.3782 17.492C42.903 17.492 42.4653 17.5764 42.0651 17.7451C41.6712 17.9076 41.3273 18.1389 41.0334 18.4389C40.7457 18.7389 40.5206 19.1014 40.3581 19.5264C40.1955 19.9451 40.1142 20.4139 40.1142 20.9326C40.1142 21.4326 40.1955 21.892 40.3581 22.3107C40.5206 22.7232 40.7457 23.0795 41.0334 23.3795C41.3273 23.6732 41.6712 23.9014 42.0651 24.0639C42.4653 24.2264 42.903 24.3076 43.3782 24.3076C43.8097 24.3076 44.2223 24.2264 44.6163 24.0639C45.0165 23.9014 45.3666 23.6732 45.6668 23.3795C45.9669 23.0795 46.2076 22.7232 46.389 22.3107C46.5703 21.892 46.661 21.4326 46.661 20.9326C46.661 20.4139 46.5797 19.9451 46.4171 19.5264ZM44.1414 20.2022C44.0956 20.0073 44.033 19.868 43.9619 19.7732C43.889 19.6761 43.8072 19.6149 43.7167 19.5804L43.7135 19.5792C43.6158 19.5401 43.5048 19.5191 43.3783 19.5191C43.2517 19.5191 43.1408 19.5401 43.043 19.5792C42.9604 19.6122 42.8849 19.6714 42.8174 19.7677C42.7501 19.8639 42.6896 20.0053 42.6432 20.2022L42.6429 20.2036C42.5981 20.3881 42.5737 20.6297 42.5737 20.9326C42.5737 21.2226 42.5981 21.4542 42.6425 21.6321C42.6884 21.8155 42.7481 21.9471 42.8145 22.0372C42.8813 22.1278 42.9574 22.1862 43.043 22.2204C43.1408 22.2595 43.2517 22.2805 43.3783 22.2805C43.5048 22.2805 43.6158 22.2595 43.7135 22.2204L43.7167 22.2192C43.8102 22.1836 43.8927 22.1232 43.965 22.0317C44.0352 21.9428 44.0968 21.8132 44.1421 21.6321L44.1436 21.6262C44.193 21.4507 44.2203 21.2212 44.2203 20.9326C44.2203 20.6309 44.193 20.3915 44.1432 20.2093L44.1414 20.2022ZM36.4844 13.0014C36.5407 13.2076 36.5688 13.4701 36.5688 13.7889C36.5688 14.0889 36.5407 14.3389 36.4844 14.5389C36.4344 14.7389 36.3625 14.8982 36.2687 15.017C36.1749 15.1357 36.0623 15.2201 35.931 15.2701C35.806 15.3201 35.6684 15.3451 35.5183 15.3451C35.3683 15.3451 35.2307 15.3201 35.1057 15.2701C34.9806 15.2201 34.8743 15.1357 34.7868 15.017C34.6992 14.8982 34.6304 14.7389 34.5804 14.5389C34.5304 14.3389 34.5054 14.0889 34.5054 13.7889C34.5054 13.4701 34.5304 13.2076 34.5804 13.0014C34.6304 12.7889 34.6992 12.6201 34.7868 12.4951C34.8743 12.3701 34.9806 12.2826 35.1057 12.2326C35.2307 12.1826 35.3683 12.1576 35.5183 12.1576C35.6684 12.1576 35.806 12.1826 35.931 12.2326C36.0623 12.2826 36.1749 12.3701 36.2687 12.4951C36.3625 12.6201 36.4344 12.7889 36.4844 13.0014ZM44.3443 20.1545C44.4006 20.3607 44.4287 20.6201 44.4287 20.9326C44.4287 21.2326 44.4006 21.4826 44.3443 21.6826C44.2943 21.8826 44.2223 22.042 44.1286 22.1607C44.0348 22.2795 43.9222 22.3639 43.7909 22.4139C43.6658 22.4639 43.5283 22.4889 43.3782 22.4889C43.2281 22.4889 43.0906 22.4639 42.9655 22.4139C42.8405 22.3639 42.7342 22.2795 42.6466 22.1607C42.5591 22.042 42.4903 21.8826 42.4403 21.6826C42.3903 21.4826 42.3652 21.2326 42.3652 20.9326C42.3652 20.6201 42.3903 20.3607 42.4403 20.1545C42.4903 19.942 42.5591 19.7732 42.6466 19.6482C42.7342 19.5232 42.8405 19.4357 42.9655 19.3857C43.0906 19.3357 43.2281 19.3107 43.3782 19.3107C43.5283 19.3107 43.6658 19.3357 43.7909 19.3857C43.9222 19.4357 44.0348 19.5232 44.1286 19.6482C44.2223 19.7732 44.2943 19.942 44.3443 20.1545Z" fill="#00458C"/>
<path fill-rule="evenodd" clip-rule="evenodd" d="M26.8352 71.875C29.1375 71.875 31.0038 70.0095 31.0038 67.7083C31.0038 65.4071 29.1375 63.5417 26.8352 63.5417C24.533 63.5417 22.6667 65.4071 22.6667 67.7083C22.6667 70.0095 24.533 71.875 26.8352 71.875ZM26.8352 75C30.8642 75 34.1303 71.7354 34.1303 67.7083C34.1303 63.6813 30.8642 60.4167 26.8352 60.4167C22.8063 60.4167 19.5402 63.6813 19.5402 67.7083C19.5402 71.7354 22.8063 75 26.8352 75Z" fill="#00458C"/>
<path fill-rule="evenodd" clip-rule="evenodd" d="M53.931 71.875C56.2333 71.875 58.0996 70.0095 58.0996 67.7083C58.0996 65.4071 56.2333 63.5417 53.931 63.5417C51.6288 63.5417 49.7624 65.4071 49.7624 67.7083C49.7624 70.0095 51.6288 71.875 53.931 71.875ZM53.931 75C57.96 75 61.226 71.7354 61.226 67.7083C61.226 63.6813 57.96 60.4167 53.931 60.4167C49.9021 60.4167 46.636 63.6813 46.636 67.7083C46.636 71.7354 49.9021 75 53.931 75Z" fill="#00458C"/>
</svg>
