<svg width="12" height="12" viewBox="0 0 12 12" fill="none" xmlns="http://www.w3.org/2000/svg">
<path d="M11 2.00714L9.99286 1L6 4.99286L2.00714 1L1 2.00714L4.99286 6L1 9.99286L2.00714 11L6 7.00714L9.99286 11L11 9.99286L7.00714 6L11 2.00714Z" fill="white"/>
<path fill-rule="evenodd" clip-rule="evenodd" d="M11.1414 2.00715L7.14851 6L11.1414 9.99286L9.9928 11.1414L5.99994 7.14857L2.00708 11.1414L0.858521 9.99286L4.85138 6L0.858521 2.00715L2.00708 0.858582L5.99994 4.85144L9.9928 0.858582L11.1414 2.00715ZM6 4.99286L2.00714 1L1 2.00714L4.99286 6L1 9.99286L2.00714 11L6 7.00714L9.99286 11L11 9.99286L7.00714 6L11 2.00714L9.99286 1L6 4.99286Z" fill="white"/>
</svg>
