<svg width="10" height="13" viewBox="0 0 10 13" fill="none" xmlns="http://www.w3.org/2000/svg">
<path d="M4.67386 0C2.08988 0 0 2.08988 0 4.67386C0 7.45814 2.95121 11.2974 4.16641 12.7596C4.43349 13.0801 4.9209 13.0801 5.18798 12.7596C6.39651 11.2974 9.34771 7.45814 9.34771 4.67386C9.34771 2.08988 7.25783 0 4.67386 0ZM4.67386 6.34309C3.75244 6.34309 3.00462 5.59527 3.00462 4.67386C3.00462 3.75244 3.75244 3.00462 4.67386 3.00462C5.59527 3.00462 6.34309 3.75244 6.34309 4.67386C6.34309 5.59527 5.59527 6.34309 4.67386 6.34309Z" fill="#BD0A2F"/>
</svg>
