<svg width="194" height="21" viewBox="0 0 194 21" fill="none" xmlns="http://www.w3.org/2000/svg">
<path fill-rule="evenodd" clip-rule="evenodd" d="M0 19.8175H8.62222L15.7356 10.8746L22.8489 19.8175H31.4711L15.7356 0C10.4904 6.58197 5.24519 13.1639 0 19.8175ZM174.959 11.5184C174.959 12.8062 174.816 12.8062 173.522 12.8062H171.51V10.0876H173.45C174.744 10.1591 174.959 10.1591 174.959 11.5184ZM180.061 19.8175L178.121 15.0241C179.127 14.5948 179.558 13.5932 179.558 11.59C179.558 7.7982 177.761 7.51203 174.744 7.51203H167.199V19.8175H171.582V15.4533H173.953L175.319 19.8175H180.061ZM194 19.6744V12.377H187.749V14.7379H189.545V17.3134C189.545 17.3134 188.827 17.385 187.677 17.385C185.881 17.385 185.809 17.385 185.809 13.8794C185.809 9.9445 185.881 9.9445 187.749 9.87296C189.761 9.80141 193.856 9.9445 193.856 9.9445V7.58357C193.856 7.58357 191.485 7.15432 187.605 7.15432C182.073 7.15432 181.282 7.94129 181.282 13.7363C181.282 19.1736 181.713 19.9605 187.605 19.9605C191.557 20.0321 194 19.6744 194 19.6744ZM165.259 17.1704H158.793V14.7379H164.828V12.377H158.793V10.1591H165.187V7.51203H154.338V19.8175H165.259V17.1704ZM148.159 16.0257C148.159 17.2419 147.871 17.2419 146.793 17.2419H144.781V14.8094H146.793C147.943 14.7379 148.159 14.7379 148.159 16.0257ZM148.087 11.3038C148.087 12.3054 147.871 12.3054 146.721 12.3054H144.781V10.0876H146.65C147.799 10.1591 148.087 10.1591 148.087 11.3038ZM152.757 16.3834C152.757 13.5932 151.248 13.5932 151.248 13.5932V13.5217C151.248 13.5217 152.685 13.5217 152.685 11.1607C152.685 7.51203 150.17 7.51203 147.943 7.51203H140.399V19.8175H148.015C150.458 19.8175 152.757 19.8175 152.757 16.3834ZM138.674 16.2403C138.674 14.094 138.674 12.9493 135.513 12.377L132.639 11.8762C131.848 11.7331 131.848 11.6615 131.848 10.8746C131.848 9.87296 132.064 9.87296 134.435 9.87296C136.734 9.87296 138.243 10.016 138.243 10.016V7.65512C138.243 7.65512 136.159 7.22586 132.782 7.22586C129.764 7.22586 127.321 7.51203 127.321 10.9461C127.321 12.8778 127.321 14.1655 130.483 14.7379L133.357 15.2387C134.147 15.3818 134.147 15.5249 134.147 16.3834C134.147 17.4565 133.932 17.4565 131.273 17.4565C128.759 17.4565 127.178 17.3134 127.178 17.3134V19.6744C127.178 19.6744 129.333 20.1036 132.926 20.1036C136.95 20.0321 138.674 19.8175 138.674 16.2403ZM120.999 13.8794C120.999 17.1704 120.927 17.2419 119.202 17.2419H119.059C117.262 17.2419 117.262 17.2419 117.262 13.8794V13.7363C117.262 10.1591 117.406 10.1591 119.059 10.1591H119.202C120.855 10.1591 120.999 10.1591 120.999 13.7363V13.8794ZM125.597 13.8078C125.597 7.94129 124.735 7.2974 119.202 7.2974C113.598 7.2974 112.736 7.94129 112.736 13.8078C112.736 19.4597 113.167 20.1036 119.202 20.1036C125.094 20.0321 125.597 19.3882 125.597 13.8078ZM106.556 11.5184C106.556 12.8062 106.413 12.8062 105.119 12.8062H103.107V10.0876H105.047C106.269 10.1591 106.556 10.1591 106.556 11.5184ZM111.586 19.8175L109.646 15.0241C110.652 14.5948 111.083 13.5932 111.083 11.59C111.083 7.7982 109.287 7.51203 106.269 7.51203H98.7244V19.8175H103.107V15.4533H105.479L106.844 19.8175H111.586ZM93.6948 19.8175L89.0963 13.5217L93.4793 7.51203H88.5215L85.2163 12.1623H84.5696V7.51203H80.1867V19.8175H84.5696V14.9525H85.2163L88.5933 19.8175H93.6948ZM78.3904 10.3738V7.51203H66.6067V10.3738H70.2711V19.8175H74.6541V10.3738H78.3904ZM64.9541 19.8175V7.51203H58.8467L56.4756 16.0257L54.1044 7.51203H48.0689V19.8175H52.0207V11.3038L54.3918 19.8175H58.4874L60.8585 11.3038V19.8175H64.9541ZM43.1111 19.8175H34.4889L23.0644 5.43728L27.3756 0L43.1111 19.8175Z" fill="#00458C"/>
</svg>
