<svg width="12" height="12" viewBox="0 0 12 12" fill="none" xmlns="http://www.w3.org/2000/svg">
<path d="M6.55208 6.49114H1V5.50886H6.55208L5.02589 3.97675L5.7182 3.28444L8.43375 6L5.7182 8.71556L5.02589 8.02325L6.55208 6.49114Z" fill="white"/>
<path d="M10.0177 1.98229H1.98229V4.23672H1V2.05475C1 1.47457 1.4694 1 2.05475 1H9.94525C10.5252 1 11 1.4748 11 2.05475V9.94525C11 10.5252 10.5252 11 9.94525 11H2.05475C1.4694 11 1 10.5254 1 9.94525V7.76328H1.98229V10.0177H10.0177V1.98229Z" fill="white"/>
<path fill-rule="evenodd" clip-rule="evenodd" d="M5.68287 8.85338L4.88818 8.0587L4.90406 8.04281L4.88463 8.02338L6.31134 6.59114H0.900024V5.40885H6.31134L4.88463 3.97661L5.71822 3.14302L8.5752 5.99999L5.71822 8.85697L5.69875 8.8375L5.68287 8.85338ZM5.02589 3.97675L5.7182 3.28444L8.43375 6L5.7182 8.71556L5.02589 8.02325L6.55208 6.49114H1V5.50886H6.55208L5.02589 3.97675ZM1.98229 4.23672H1V2.05475C1 1.47457 1.4694 1 2.05475 1H9.94525C10.5252 1 11 1.4748 11 2.05475V9.94525C11 10.5252 10.5252 11 9.94525 11H2.05475C1.4694 11 1 10.5254 1 9.94525V7.76328H1.98229V10.0177H10.0177V1.98229H1.98229V4.23672ZM2.08231 2.08228V4.33671H0.900024V2.05474C0.900024 1.41965 1.41388 0.899994 2.05477 0.899994H9.94527C10.5805 0.899994 11.1 1.41957 11.1 2.05474V9.94524C11.1 10.5804 10.5805 11.1 9.94527 11.1H2.05477C1.41388 11.1 0.900024 10.5803 0.900024 9.94524V7.66328H2.08231V9.91771H9.91774V2.08228H2.08231Z" fill="white"/>
</svg>
